# xmcd CD database file
#
# Track frame offsets:
#	150
#	17145
#	30370
#	40450
#	49915
#	68387
#	82247
#	99145
#	111880
#	126450
#	139815
#	151262
#	167425
#	179950
#
# Disc length: 2540 seconds
#
# Revision: 2
# Processed by: cddbd v1.5.2PL0 Copyright (c) Steve Scherf et al.
# Submitted via: CDex 1.85
#
DISCID=ba09ea0e
DTITLE=Poverty Stinks - Another world
DYEAR=1992
DGENRE=Country
TTITLE0=You're going away
TTITLE1=Another world
TTITLE2=The only one
TTITLE3=You can't give enough
TTITLE4=There must be
TTITLE5=Hitch-hiker
TTITLE6=She
TTITLE7=Take me home
TTITLE8=Man like anyone else
TTITLE9=Don't follow me
TTITLE10=Getting deeper
TTITLE11=One love
TTITLE12=The Waltz
TTITLE13=Poverty stinks
EXTD=YEAR: 1992
EXTT0=
EXTT1=
EXTT2=
EXTT3=
EXTT4=
EXTT5=
EXTT6=
EXTT7=
EXTT8=
EXTT9=
EXTT10=
EXTT11=
EXTT12=
EXTT13=
PLAYORDER=
